<?xml version="1.0" encoding="UTF-8" standalone="no"?>
<svg
   version="1.1"
   viewBox="-45.499463 -48.052826 95.999463 96.105652"
   id="svg1"
   sodipodi:docname="FlatBump-5.svg"
   inkscape:version="1.4.2"
   xmlns:inkscape="http://www.inkscape.org/namespaces/inkscape"
   xmlns:sodipodi="http://sodipodi.sourceforge.net/DTD/sodipodi-0.dtd"
   xmlns="http://www.w3.org/2000/svg"
   xmlns:svg="http://www.w3.org/2000/svg">
  <defs id="defs1" />
  <sodipodi:namedview
     id="namedview1"
     pagecolor="#ffffff"
     bordercolor="#000000"
     borderopacity="0.25"
     inkscape:showpageshadow="2"
     inkscape:pageopacity="0.0"
     inkscape:pagecheckerboard="0"
     inkscape:deskcolor="#d1d1d1"
     inkscape:current-layer="svg1" />
  <path d="M 50.000000 0.000000 L 38.913775 -15.258880 L 38.951199 -15.462639 L 38.991979 -15.708442 L 39.028517 -15.954911 L 39.060803 -16.201973 L 39.088827 -16.449555 L 39.112580 -16.697583 L 39.132055 -16.945983 L 39.147247 -17.194682 L 39.158151 -17.443606 L 39.164764 -17.692681 L 39.167083 -17.941833 L 39.165109 -18.190988 L 39.158842 -18.440072 L 39.148283 -18.689011 L 39.133436 -18.937731 L 39.114306 -19.186158 L 39.090897 -19.434219 L 39.063216 -19.681839 L 39.031273 -19.928946 L 38.995077 -20.175465 L 38.954638 -20.421325 L 38.909967 -20.666450 L 38.861080 -20.910770 L 38.807990 -21.154211 L 38.750712 -21.396701 L 38.689264 -21.638168 L 38.623664 -21.878540 L 38.553932 -22.117746 L 38.480088 -22.355715 L 38.402155 -22.592376 L 38.320154 -22.827658 L 38.234112 -23.061493 L 38.144052 -23.293811 L 38.050003 -23.524542 L 37.951992 -23.753618 L 37.850047 -23.980971 L 37.744200 -24.206533 L 37.634482 -24.430238 L 37.520925 -24.652019 L 37.403563 -24.871811 L 37.282431 -25.089547 L 37.157564 -25.305164 L 37.029001 -25.518596 L 36.896779 -25.729782 L 36.760937 -25.938658 L 36.621516 -26.145162 L 36.478558 -26.349232 L 36.332103 -26.550809 L 36.182197 -26.749833 L 36.028884 -26.946243 L 35.872209 -27.139982 L 35.712218 -27.330993 L 35.548960 -27.519218 L 35.382482 -27.704602 L 35.212834 -27.887090 L 35.040067 -28.066627 L 34.864232 -28.243160 L 34.685380 -28.416637 L 34.503566 -28.587006 L 34.318843 -28.754217 L 34.131266 -28.918220 L 33.940891 -29.078966 L 33.747774 -29.236408 L 33.551972 -29.390498 L 33.353544 -29.541191 L 33.152549 -29.688443 L 32.949046 -29.832209 L 32.743097 -29.972447 L 32.534760 -30.109115 L 32.324100 -30.242173 L 32.111178 -30.371581 L 31.896058 -30.497300 L 31.678804 -30.619294 L 31.459479 -30.737525 L 31.238149 -30.851960 L 31.014881 -30.962564 L 30.789739 -31.069304 L 30.562792 -31.172148 L 30.334106 -31.271066 L 30.103749 -31.366029 L 29.871791 -31.457008 L 29.638298 -31.543976 L 29.403342 -31.626908 L 29.166992 -31.705779 L 28.929317 -31.780565 L 28.690390 -31.851244 L 28.450279 -31.917795 L 28.209058 -31.980199 L 27.966797 -32.038437 L 27.723568 -32.092491 L 27.479444 -32.142346 L 27.234497 -32.187987 L 26.988800 -32.229400 L 26.742426 -32.266573 L 26.537075 -32.293946 L 15.450850 -47.552826 L -2.487039 -41.724452 L -2.669261 -41.823009 L -2.890432 -41.937751 L -3.113547 -42.048664 L -3.338540 -42.155716 L -3.565345 -42.258875 L -3.793893 -42.358111 L -4.024118 -42.453393 L -4.255950 -42.544693 L -4.489321 -42.631985 L -4.724162 -42.715243 L -4.960403 -42.794441 L -5.197973 -42.869557 L -5.436803 -42.940568 L -5.676821 -43.007452 L -5.917956 -43.070190 L -6.160136 -43.128764 L -6.403289 -43.183156 L -6.647344 -43.233349 L -6.892227 -43.279330 L -7.137866 -43.321084 L -7.384189 -43.358598 L -7.631121 -43.391863 L -7.878590 -43.420867 L -8.126522 -43.445602 L -8.374843 -43.466061 L -8.623480 -43.482238 L -8.872359 -43.494128 L -9.121406 -43.501728 L -9.370547 -43.505035 L -9.619708 -43.504047 L -9.868814 -43.498767 L -10.117793 -43.489194 L -10.366570 -43.475333 L -10.615071 -43.457186 L -10.863222 -43.434760 L -11.110951 -43.408061 L -11.358182 -43.377098 L -11.604843 -43.341878 L -11.850860 -43.302413 L -12.096161 -43.258714 L -12.340673 -43.210795 L -12.584322 -43.158669 L -12.827037 -43.102353 L -13.068745 -43.041862 L -13.309375 -42.977215 L -13.548855 -42.908431 L -13.787115 -42.835531 L -14.024083 -42.758535 L -14.259689 -42.677467 L -14.493863 -42.592352 L -14.726535 -42.503213 L -14.957637 -42.410079 L -15.187099 -42.312976 L -15.414854 -42.211933 L -15.640834 -42.106980 L -15.864972 -41.998149 L -16.087201 -41.885471 L -16.307456 -41.768981 L -16.525670 -41.648712 L -16.741780 -41.524701 L -16.955720 -41.396985 L -17.167428 -41.265600 L -17.376841 -41.130587 L -17.583895 -40.991985 L -17.788531 -40.849836 L -17.990686 -40.704181 L -18.190302 -40.555065 L -18.387318 -40.402531 L -18.581676 -40.246624 L -18.773319 -40.087392 L -18.962190 -39.924880 L -19.148232 -39.759138 L -19.331390 -39.590215 L -19.511610 -39.418160 L -19.688839 -39.243026 L -19.863023 -39.064863 L -20.034111 -38.883725 L -20.202052 -38.699666 L -20.366797 -38.512740 L -20.528296 -38.323003 L -20.686501 -38.130511 L -20.841366 -37.935322 L -20.992844 -37.737492 L -21.140891 -37.537082 L -21.285462 -37.334150 L -21.426515 -37.128758 L -21.564007 -36.920965 L -21.697899 -36.710833 L -21.828149 -36.498426 L -21.954719 -36.283805 L -22.077573 -36.067036 L -22.196672 -35.848181 L -22.311983 -35.627307 L -22.423470 -35.404478 L -22.512961 -35.217636 L -40.450850 -29.389263 L -40.450850 -10.528250 L -40.600893 -10.385402 L -40.778364 -10.210514 L -40.952795 -10.032593 L -41.124134 -9.851693 L -41.292331 -9.667866 L -41.457335 -9.481169 L -41.619097 -9.291656 L -41.777569 -9.099384 L -41.932704 -8.904410 L -42.084457 -8.706791 L -42.232781 -8.506586 L -42.377634 -8.303855 L -42.518971 -8.098658 L -42.656752 -7.891056 L -42.790934 -7.681111 L -42.921479 -7.468884 L -43.048347 -7.254439 L -43.171501 -7.037840 L -43.290904 -6.819151 L -43.406521 -6.598437 L -43.518317 -6.375763 L -43.626260 -6.151195 L -43.730316 -5.924801 L -43.830456 -5.696648 L -43.926650 -5.466802 L -44.018868 -5.235333 L -44.107084 -5.002310 L -44.191271 -4.767801 L -44.271405 -4.531875 L -44.347461 -4.294604 L -44.419417 -4.056058 L -44.487252 -3.816307 L -44.550945 -3.575423 L -44.610478 -3.333477 L -44.665832 -3.090541 L -44.716992 -2.846687 L -44.763942 -2.601987 L -44.806669 -2.356515 L -44.845159 -2.110344 L -44.879401 -1.863545 L -44.909386 -1.616193 L -44.935103 -1.368361 L -44.956546 -1.120123 L -44.973708 -0.871552 L -44.986584 -0.622722 L -44.995170 -0.373707 L -44.999463 -0.124581 L -44.999463 0.124581 L -44.995170 0.373707 L -44.986584 0.622722 L -44.973708 0.871552 L -44.956546 1.120123 L -44.935103 1.368361 L -44.909386 1.616193 L -44.879401 1.863545 L -44.845159 2.110344 L -44.806669 2.356515 L -44.763942 2.601987 L -44.716992 2.846687 L -44.665832 3.090541 L -44.610478 3.333477 L -44.550945 3.575423 L -44.487252 3.816307 L -44.419417 4.056058 L -44.347461 4.294604 L -44.271405 4.531875 L -44.191271 4.767801 L -44.107084 5.002310 L -44.018868 5.235333 L -43.926650 5.466802 L -43.830456 5.696648 L -43.730316 5.924801 L -43.626260 6.151195 L -43.518317 6.375763 L -43.406521 6.598437 L -43.290904 6.819151 L -43.171501 7.037840 L -43.048347 7.254439 L -42.921479 7.468884 L -42.790934 7.681111 L -42.656752 7.891056 L -42.518971 8.098658 L -42.377634 8.303855 L -42.232781 8.506586 L -42.084457 8.706791 L -41.932704 8.904410 L -41.777569 9.099384 L -41.619097 9.291656 L -41.457335 9.481169 L -41.292331 9.667866 L -41.124134 9.851693 L -40.952795 10.032593 L -40.778364 10.210514 L -40.600893 10.385402 L -40.450850 10.528250 L -40.450850 29.389263 L -22.512961 35.217636 L -22.423470 35.404478 L -22.311983 35.627307 L -22.196672 35.848181 L -22.077573 36.067036 L -21.954719 36.283805 L -21.828149 36.498426 L -21.697899 36.710833 L -21.564007 36.920965 L -21.426515 37.128758 L -21.285462 37.334150 L -21.140891 37.537082 L -20.992844 37.737492 L -20.841366 37.935322 L -20.686501 38.130511 L -20.528296 38.323003 L -20.366797 38.512740 L -20.202052 38.699666 L -20.034111 38.883725 L -19.863023 39.064863 L -19.688839 39.243026 L -19.511610 39.418160 L -19.331390 39.590215 L -19.148232 39.759138 L -18.962190 39.924880 L -18.773319 40.087392 L -18.581676 40.246624 L -18.387318 40.402531 L -18.190302 40.555065 L -17.990686 40.704181 L -17.788531 40.849836 L -17.583895 40.991985 L -17.376841 41.130587 L -17.167428 41.265600 L -16.955720 41.396985 L -16.741780 41.524701 L -16.525670 41.648712 L -16.307456 41.768981 L -16.087201 41.885471 L -15.864972 41.998149 L -15.640834 42.106980 L -15.414854 42.211933 L -15.187099 42.312976 L -14.957637 42.410079 L -14.726535 42.503213 L -14.493863 42.592352 L -14.259689 42.677467 L -14.024083 42.758535 L -13.787115 42.835531 L -13.548855 42.908431 L -13.309375 42.977215 L -13.068745 43.041862 L -12.827037 43.102353 L -12.584322 43.158669 L -12.340673 43.210795 L -12.096161 43.258714 L -11.850860 43.302413 L -11.604843 43.341878 L -11.358182 43.377098 L -11.110951 43.408061 L -10.863222 43.434760 L -10.615071 43.457186 L -10.366570 43.475333 L -10.117793 43.489194 L -9.868814 43.498767 L -9.619708 43.504047 L -9.370547 43.505035 L -9.121406 43.501728 L -8.872359 43.494128 L -8.623480 43.482238 L -8.374843 43.466061 L -8.126522 43.445602 L -7.878590 43.420867 L -7.631121 43.391863 L -7.384189 43.358598 L -7.137866 43.321084 L -6.892227 43.279330 L -6.647344 43.233349 L -6.403289 43.183156 L -6.160136 43.128764 L -5.917956 43.070190 L -5.676821 43.007452 L -5.436803 42.940568 L -5.197973 42.869557 L -4.960403 42.794441 L -4.724162 42.715243 L -4.489321 42.631985 L -4.255950 42.544693 L -4.024118 42.453393 L -3.793893 42.358111 L -3.565345 42.258875 L -3.338540 42.155716 L -3.113547 42.048664 L -2.890432 41.937751 L -2.669261 41.823009 L -2.487039 41.724452 L 15.450850 47.552826 L 26.537075 32.293946 L 26.742426 32.266573 L 26.988800 32.229400 L 27.234497 32.187987 L 27.479444 32.142346 L 27.723568 32.092491 L 27.966797 32.038437 L 28.209058 31.980199 L 28.450279 31.917795 L 28.690390 31.851244 L 28.929317 31.780565 L 29.166992 31.705779 L 29.403342 31.626908 L 29.638298 31.543976 L 29.871791 31.457008 L 30.103749 31.366029 L 30.334106 31.271066 L 30.562792 31.172148 L 30.789739 31.069304 L 31.014881 30.962564 L 31.238149 30.851960 L 31.459479 30.737525 L 31.678804 30.619294 L 31.896058 30.497300 L 32.111178 30.371581 L 32.324100 30.242173 L 32.534760 30.109115 L 32.743097 29.972447 L 32.949046 29.832209 L 33.152549 29.688443 L 33.353544 29.541191 L 33.551972 29.390498 L 33.747774 29.236408 L 33.940891 29.078966 L 34.131266 28.918220 L 34.318843 28.754217 L 34.503566 28.587006 L 34.685380 28.416637 L 34.864232 28.243160 L 35.040067 28.066627 L 35.212834 27.887090 L 35.382482 27.704602 L 35.548960 27.519218 L 35.712218 27.330993 L 35.872209 27.139982 L 36.028884 26.946243 L 36.182197 26.749833 L 36.332103 26.550809 L 36.478558 26.349232 L 36.621516 26.145162 L 36.760937 25.938658 L 36.896779 25.729782 L 37.029001 25.518596 L 37.157564 25.305164 L 37.282431 25.089547 L 37.403563 24.871811 L 37.520925 24.652019 L 37.634482 24.430238 L 37.744200 24.206533 L 37.850047 23.980971 L 37.951992 23.753618 L 38.050003 23.524542 L 38.144052 23.293811 L 38.234112 23.061493 L 38.320154 22.827658 L 38.402155 22.592376 L 38.480088 22.355715 L 38.553932 22.117746 L 38.623664 21.878540 L 38.689264 21.638168 L 38.750712 21.396701 L 38.807990 21.154211 L 38.861080 20.910770 L 38.909967 20.666450 L 38.954638 20.421325 L 38.995077 20.175465 L 39.031273 19.928946 L 39.063216 19.681839 L 39.090897 19.434219 L 39.114306 19.186158 L 39.133436 18.937731 L 39.148283 18.689011 L 39.158842 18.440072 L 39.165109 18.190988 L 39.167083 17.941833 L 39.164764 17.692681 L 39.158151 17.443606 L 39.147247 17.194682 L 39.132055 16.945983 L 39.112580 16.697583 L 39.088827 16.449555 L 39.060803 16.201973 L 39.028517 15.954911 L 38.991979 15.708442 L 38.951199 15.462639 L 38.913775 15.258880 L 50.000000 0.000000 Z" fill="none" stroke="#000000" stroke-width="0.250000" stroke-linecap="round" stroke-linejoin="round" id="path1" />
</svg>